#!OML:ASF H:\MichaelJackson\Top Level 1\Subject 1\Session 1\male.ASF
:FULLY-SPECIFIED
:DEGREES
37
root -15.5063 17.2672 -18.5063 10.7573 -1.80687 -2.62922
lowerback -6.29927 1.28626 0.217926
upperback -1.33033 1.68121 0.722053
thorax 2.14385 0.838593 0.755106
lowerneck -5.6608 -2.04514 0.983605
upperneck -12.4659 -2.58937 1.99298
head -2.99568 -1.3848 0.497487
rclavicle 4.99446e-015 1.13307e-014
rhumerus -38.9183 11.0791 -98.4858
rradius 36.179
rwrist 16.927
rhand -14.9004 -15.9016
rfingers 7.12502
rthumb 11.2609 -45.5794
lclavicle 4.99446e-015 1.13307e-014
lhumerus -42.3668 -21.5102 104.094
lradius 44.6559
lwrist 1.47204
lhand -1.35429 11.7023
lfingers 7.12502
lthumb 24.2926 40.1831
rfemur -20.5402 6.9768 20.5614
rtibia 29.7063
rfoot -15.9547 -13.6516
rtoes 8.48318
lfemur -22.1659 2.90797 -19.707
ltibia 32.5127
lfoot -21.2559 2.38818
ltoes 13.0901
38
root -15.5055 17.2674 -18.5107 10.7789 -1.87724 -2.61882
lowerback -6.27696 1.28758 0.215318
upperback -1.33276 1.68352 0.712786
thorax 2.1291 0.839782 0.746604
lowerneck -5.69828 -2.02451 0.993874
upperneck -12.4411 -2.56417 1.98181
head -2.98087 -1.37213 0.491114
rclavicle 2.90536e-014 2.0276e-014
rhumerus -38.9032 11.0459 -98.4585
rradius 36.1855
rwrist 16.8521
rhand -15.195 -16.0227
rfingers 7.12502
rthumb 10.9767 -45.7157
lclavicle 2.90536e-014 2.0276e-014
lhumerus -42.135 -21.1705 103.735
lradius 44.2149
lwrist 1.0208
lhand -2.50911 11.7479
lfingers 7.12502
lthumb 23.185 40.3725
rfemur -20.5903 6.97483 20.5384
rtibia 29.7069
rfoot -15.9356 -13.5899
rtoes 8.49001
lfemur -22.1969 2.8893 -19.7291
ltibia 32.5129
lfoot -21.2456 2.49656
ltoes 13.0025
39
root -15.5045 17.2674 -18.5151 10.8014 -1.95346 -2.61088
lowerback -6.25597 1.29274 0.216384
upperback -1.33294 1.69069 0.703796
thorax 2.11743 0.843399 0.736784
lowerneck -5.73872 -2.00818 1.00518
upperneck -12.4166 -2.54486 1.96998
head -2.96568 -1.3624 0.484387
rclavicle 1.94995e-014 1.78906e-015
rhumerus -38.8894 11.0007 -98.4224
rradius 36.2048
rwrist 16.7741
rhand -15.5003 -16.1383
rfingers 7.12502
rthumb 10.6822 -45.8468
lclavicle 1.94995e-014 1.78906e-015
lhumerus -41.8982 -20.8525 103.375
lradius 43.7732
lwrist 0.588018
lhand -3.5209 11.7843
lfingers 7.12502
lthumb 22.214 40.5278
rfemur -20.6434 6.982 20.5154
rtibia 29.7093
rfoot -15.9201 -13.5272
rtoes 8.52403
lfemur -22.2293 2.87214 -19.7499
ltibia 32.5129
lfoot -21.2351 2.60876
ltoes 12.9052
40
root -15.5033 17.2673 -18.5197 10.8259 -2.0334 -2.60473
lowerback -6.23455 1.30049 0.21901
upperback -1.33378 1.70117 0.695887
thorax 2.10484 0.848683 0.727438
lowerneck -5.77695 -1.99442 1.01592
upperneck -12.392 -2.52895 1.95831
head -2.95079 -1.35435 0.477874
rclavicle -3.43525e-015 4.47266e-015
rhumerus -38.8871 10.9388 -98.3759
rradius 36.2477
rwrist 16.6909
rhand -15.8506 -16.2304
rfingers 7.12502
rthumb 10.3443 -45.956
lclavicle -3.43525e-015 4.47266e-015
lhumerus -41.662 -20.5485 103.018
lradius 43.3391
lwrist 0.195689
lhand -4.36094 11.8387
lfingers 7.12502
lthumb 21.4073 40.676
rfemur -20.7013 7.00556 20.4913
rtibia 29.7145
rfoot -15.9046 -13.4763
rtoes 8.56492
lfemur -22.2644 2.85795 -19.7697
ltibia 32.513
lfoot -21.2261 2.72013
ltoes 12.8137
41
root -15.5021 17.2667 -18.5239 10.8356 -2.08977 -2.59389
lowerback -6.20077 1.30018 0.217431
upperback -1.3295 1.70122 0.689257
thorax 2.09057 0.848738 0.720695
lowerneck -5.81626 -1.98171 1.02678
upperneck -12.368 -2.51446 1.9465
head -2.93596 -1.34702 0.471315
rclavicle -4.6528e-015 -2.28602e-015
rhumerus -38.8855 10.874 -98.3251
rradius 36.2998
rwrist 16.5859
rhand -16.258 -16.298
rfingers 7.12502
rthumb 9.95128 -46.0428
lclavicle -4.6528e-015 -2.28602e-015
lhumerus -41.4268 -20.2502 102.659
lradius 42.9181
lwrist -0.14577
lhand -5.03269 11.9236
lfingers 7.12502
lthumb 20.762 40.8329
rfemur -20.7403 7.05979 20.4643
rtibia 29.7254
rfoot -15.9034 -13.4765
rtoes 8.62382
lfemur -22.2831 2.84185 -19.7893
ltibia 32.5123
lfoot -21.2276 2.79969
ltoes 12.7514
42
root -15.501 17.2657 -18.5278 10.8301 -2.12839 -2.58345
lowerback -6.15331 1.29413 0.216271
upperback -1.32245 1.69362 0.684893
thorax 2.07155 0.844987 0.715139
lowerneck -5.84755 -1.96944 1.04138
upperneck -12.3475 -2.5009 1.93043
head -2.92383 -1.34025 0.462926
rclavicle -2.72646e-014 -9.34288e-015
rhumerus -38.8926 10.8062 -98.2711
rradius 36.3677
rwrist 16.4564
rhand -16.7329 -16.3281
rfingers 7.12502
rthumb 9.49306 -46.0943
lclavicle -2.72646e-014 -9.34288e-015
lhumerus -41.199 -19.9536 102.302
lradius 42.5114
lwrist -0.432776
lhand -5.58793 11.9979
lfingers 7.12502
lthumb 20.2284 40.9646
rfemur -20.7613 7.14628 20.4397
rtibia 29.7441
rfoot -15.9162 -13.5281
rtoes 8.66476
lfemur -22.2855 2.83252 -19.8054
ltibia 32.5106
lfoot -21.2414 2.85229
ltoes 12.6848
43
root -15.4999 17.2643 -18.5316 10.8145 -2.14578 -2.57052
lowerback -6.0959 1.28015 0.21069
upperback -1.31459 1.67573 0.684032
thorax 2.04767 0.836084 0.71463
lowerneck -5.86801 -1.95609 1.05288
upperneck -12.3322 -2.48541 1.91591
head -2.91537 -1.33253 0.455756
rclavicle 7.37988e-015 4.27387e-015
rhumerus -38.9058 10.7422 -98.2136
rradius 36.4406
rwrist 16.3173
rhand -17.2565 -16.3228
rfingers 7.12502
rthumb 8.98786 -46.1114
lclavicle 7.37988e-015 4.27387e-015
lhumerus -40.9844 -19.6552 101.948
lradius 42.1285
lwrist -0.65333
lhand -6.02167 12.0895
lfingers 7.12502
lthumb 19.8115 41.0998
rfemur -20.7713 7.2493 20.416
rtibia 29.773
rfoot -15.9525 -13.6227
rtoes 8.67825
lfemur -22.275 2.82074 -19.8188
ltibia 32.5072
lfoot -21.2698 2.87579
ltoes 12.6648
44
root -15.499 17.2623 -18.5349 10.7844 -2.14518 -2.55652
lowerback -6.02564 1.25924 0.202838
upperback -1.306 1.64877 0.685026
thorax 2.01736 0.822662 0.716319
lowerneck -5.87645 -1.94148 1.06715
upperneck -12.3183 -2.46816 1.90068
head -2.90958 -1.32411 0.448058
rclavicle 2.52829e-015 9.54166e-015
rhumerus -38.9248 10.6819 -98.1575
rradius 36.5135
rwrist 16.1687
rhand -17.7941 -16.2859
rfingers 7.12502
rthumb 8.46904 -46.0961
lclavicle 2.52829e-015 9.54166e-015
lhumerus -40.7908 -19.3585 101.599
lradius 41.7781
lwrist -0.800817
lhand -6.34623 12.1995
lfingers 7.12502
lthumb 19.4995 41.2417
rfemur -20.7633 7.35601 20.3974
rtibia 29.812
rfoot -16.0052 -13.7509
rtoes 8.69559
lfemur -22.2459 2.81066 -19.8288
ltibia 32.5036
lfoot -21.3166 2.87922
ltoes 12.6378
45
root -15.4982 17.2601 -18.5381 10.749 -2.13871 -2.54402
lowerback -5.94701 1.23712 0.193646
upperback -1.30664 1.62039 0.685976
thorax 1.97286 0.808566 0.718304
lowerneck -5.8453 -1.92668 1.08915
upperneck -12.3136 -2.45007 1.8859
head -2.91407 -1.31585 0.439815
rclavicle 6.31763e-015 9.0447e-015
rhumerus -38.9628 10.6126 -98.1038
rradius 36.5838
rwrist 16.0318
rhand -18.3118 -16.2259
rfingers 7.12502
rthumb 7.96944 -46.0557
lclavicle 6.31763e-015 9.0447e-015
lhumerus -40.6373 -19.0697 101.262
lradius 41.4629
lwrist -0.877428
lhand -6.58314 12.3137
lfingers 7.12502
lthumb 19.2717 41.3788
rfemur -20.7497 7.4578 20.3854
rtibia 29.862
rfoot -16.0832 -13.8955
rtoes 8.66417
lfemur -22.2081 2.80604 -19.8353
ltibia 32.5003
lfoot -21.379 2.87355
ltoes 12.6092
46
root -15.4975 17.2576 -18.5413 10.7181 -2.1399 -2.54132
lowerback -5.86432 1.21785 0.189797
upperback -1.31735 1.59551 0.689357
thorax 1.9158 0.796276 0.719864
lowerneck -5.79233 -1.91094 1.11432
upperneck -12.3087 -2.43018 1.87388
head -2.92238 -1.307 0.43218
rclavicle -1.80149e-015 3.97569e-016
rhumerus -39.0096 10.5436 -98.0525
rradius 36.6437
rwrist 15.9065
rhand -18.7712 -16.1709
rfingers 7.12502
rthumb 7.52598 -46.017
lclavicle -1.80149e-015 3.97569e-016
lhumerus -40.5227 -18.7877 100.935
lradius 41.1892
lwrist -0.899282
lhand -6.75089 12.4385
lfingers 7.12502
lthumb 19.1104 41.5196
rfemur -20.7437 7.54918 20.3869
rtibia 29.923
rfoot -16.1961 -14.038
rtoes 8.51394
lfemur -22.1727 2.80331 -19.8306
ltibia 32.4995
lfoot -21.4539 2.87738
ltoes 12.5665
47
root -15.4967 17.255 -18.5446 10.6983 -2.16268 -2.55076
lowerback -5.78369 1.20616 0.191325
upperback -1.33935 1.58041 0.695068
thorax 1.84826 0.788917 0.721457
lowerneck -5.71964 -1.89584 1.15195
upperneck -12.3032 -2.41179 1.85476
head -2.93423 -1.29931 0.420397
rclavicle 1.63003e-014 1.09332e-014
rhumerus -39.0656 10.4704 -98.001
rradius 36.6968
rwrist 15.7971
rhand -19.1272 -16.1397
rfingers 7.12502
rthumb 7.18241 -45.9978
lclavicle 1.63003e-014 1.09332e-014
lhumerus -40.4378 -18.5261 100.624
lradius 40.9442
lwrist -0.87289
lhand -6.85565 12.5833
lfingers 7.12502
lthumb 19.0096 41.6744
rfemur -20.7557 7.61075 20.4053
rtibia 29.996
rfoot -16.3359 -14.1549
rtoes 8.25623
lfemur -22.1471 2.79489 -19.8134
ltibia 32.5029
lfoot -21.5392 2.91191
ltoes 12.504
48
root -15.496 17.2526 -18.5481 10.6948 -2.21899 -2.57292
lowerback -5.70909 1.20539 0.196793
upperback -1.3721 1.5796 0.703423
thorax 1.77291 0.788728 0.724596
lowerneck -5.63685 -1.87918 1.19487
upperneck -12.2954 -2.39122 1.83614
head -2.94716 -1.2908 0.407944
rclavicle 1.10574e-015 -6.95746e-016
rhumerus -39.1226 10.3919 -97.9467
rradius 36.7369
rwrist 15.7134
rhand -19.3815 -16.1427
rfingers 7.12502
rthumb 6.93691 -46.009
lclavicle 1.10574e-015 -6.95746e-016
lhumerus -40.3827 -18.2815 100.327
lradius 40.7311
lwrist -0.822033
lhand -6.91422 12.7343
lfingers 7.12502
lthumb 18.9533 41.8309
rfemur -20.795 7.63036 20.4414
rtibia 30.0832
rfoot -16.4898 -14.2351
rtoes 7.83067
lfemur -22.1362 2.77013 -19.7835
ltibia 32.5126
lfoot -21.6344 3.00059
ltoes 12.4253
